<svg xmlns="http://www.w3.org/2000/svg" viewBox="0 0 420 340" width="840" height="680">
<rect width="420" height="340" fill="#fff"/><rect x="180" y="240" width="90" height="90" fill="#FFE066" stroke="#8A7000" stroke-width="3"/><polygon points="180,240 270,240 304,206 214,206" fill="#FFF0A6" stroke="#8A7000" stroke-width="3"/><polygon points="270,240 304,206 304,296 270,330" fill="#EFC200" stroke="#8A7000" stroke-width="3"/><rect x="180" y="150" width="90" height="90" fill="#FFE066" stroke="#8A7000" stroke-width="3"/><polygon points="180,150 270,150 304,116 214,116" fill="#FFF0A6" stroke="#8A7000" stroke-width="3"/><polygon points="270,150 304,116 304,206 270,240" fill="#EFC200" stroke="#8A7000" stroke-width="3"/><rect x="90" y="60" width="90" height="90" fill="#FFE066" stroke="#8A7000" stroke-width="3"/><polygon points="90,60 180,60 214,26 124,26" fill="#FFF0A6" stroke="#8A7000" stroke-width="3"/><polygon points="180,60 214,26 214,116 180,150" fill="#EFC200" stroke="#8A7000" stroke-width="3"/><rect x="180" y="60" width="90" height="90" fill="#FFE066" stroke="#8A7000" stroke-width="3"/><polygon points="180,60 270,60 304,26 214,26" fill="#FFF0A6" stroke="#8A7000" stroke-width="3"/><polygon points="270,60 304,26 304,116 270,150" fill="#EFC200" stroke="#8A7000" stroke-width="3"/><rect x="270" y="60" width="90" height="90" fill="#FFE066" stroke="#8A7000" stroke-width="3"/><polygon points="270,60 360,60 394,26 304,26" fill="#FFF0A6" stroke="#8A7000" stroke-width="3"/><polygon points="360,60 394,26 394,116 360,150" fill="#EFC200" stroke="#8A7000" stroke-width="3"/></svg>
