<svg xmlns="http://www.w3.org/2000/svg" viewBox="0 0 600 400" width="1200" height="800">
<rect width="600" height="400" fill="#FAF7E8"/>
<path d="M80,70 H470 Q520,70 520,135 H130 Q80,135 80,200 H470 Q520,200 520,265 H470"
 stroke="#C8B88A" stroke-width="5" fill="none"/>
<rect x="73" y="104" width="14" height="40" fill="#8B5A2B"/><circle cx="80" cy="70" r="44" fill="#C7E59B" stroke="#5E9022" stroke-width="3"/><text x="80" y="81.52" font-family="system-ui,Arial" font-size="32" font-weight="700" text-anchor="middle" fill="#3A2A00">10</text><rect x="203" y="104" width="14" height="40" fill="#8B5A2B"/><circle cx="210" cy="70" r="44" fill="#EAF6D8" stroke="#5E9022" stroke-width="3"/><text x="210" y="81.52" font-family="system-ui,Arial" font-size="32" font-weight="700" text-anchor="middle" fill="#3A2A00"></text><rect x="333" y="104" width="14" height="40" fill="#8B5A2B"/><circle cx="340" cy="70" r="44" fill="#C7E59B" stroke="#5E9022" stroke-width="3"/><text x="340" y="81.52" font-family="system-ui,Arial" font-size="32" font-weight="700" text-anchor="middle" fill="#3A2A00">14</text><rect x="463" y="104" width="14" height="40" fill="#8B5A2B"/><circle cx="470" cy="70" r="44" fill="#C7E59B" stroke="#5E9022" stroke-width="3"/><text x="470" y="81.52" font-family="system-ui,Arial" font-size="32" font-weight="700" text-anchor="middle" fill="#3A2A00">16</text><rect x="73" y="239" width="14" height="40" fill="#8B5A2B"/><circle cx="80" cy="205" r="44" fill="#EAF6D8" stroke="#5E9022" stroke-width="3"/><text x="80" y="216.52" font-family="system-ui,Arial" font-size="32" font-weight="700" text-anchor="middle" fill="#3A2A00"></text><rect x="203" y="239" width="14" height="40" fill="#8B5A2B"/><circle cx="210" cy="205" r="44" fill="#C7E59B" stroke="#5E9022" stroke-width="3"/><text x="210" y="216.52" font-family="system-ui,Arial" font-size="32" font-weight="700" text-anchor="middle" fill="#3A2A00">22</text><rect x="333" y="239" width="14" height="40" fill="#8B5A2B"/><circle cx="340" cy="205" r="44" fill="#C7E59B" stroke="#5E9022" stroke-width="3"/><text x="340" y="216.52" font-family="system-ui,Arial" font-size="32" font-weight="700" text-anchor="middle" fill="#3A2A00">20</text><rect x="463" y="239" width="14" height="40" fill="#8B5A2B"/><circle cx="470" cy="205" r="44" fill="#C7E59B" stroke="#5E9022" stroke-width="3"/><text x="470" y="216.52" font-family="system-ui,Arial" font-size="32" font-weight="700" text-anchor="middle" fill="#3A2A00">?</text><rect x="73" y="374" width="14" height="40" fill="#8B5A2B"/><circle cx="80" cy="340" r="44" fill="#C7E59B" stroke="#5E9022" stroke-width="3"/><text x="80" y="351.52" font-family="system-ui,Arial" font-size="32" font-weight="700" text-anchor="middle" fill="#3A2A00">26</text><rect x="203" y="374" width="14" height="40" fill="#8B5A2B"/><circle cx="210" cy="340" r="44" fill="#EAF6D8" stroke="#5E9022" stroke-width="3"/><text x="210" y="351.52" font-family="system-ui,Arial" font-size="32" font-weight="700" text-anchor="middle" fill="#3A2A00"></text><rect x="333" y="374" width="14" height="40" fill="#8B5A2B"/><circle cx="340" cy="340" r="44" fill="#C7E59B" stroke="#5E9022" stroke-width="3"/><text x="340" y="351.52" font-family="system-ui,Arial" font-size="32" font-weight="700" text-anchor="middle" fill="#3A2A00">30</text><rect x="463" y="374" width="14" height="40" fill="#8B5A2B"/><circle cx="470" cy="340" r="44" fill="#EAF6D8" stroke="#5E9022" stroke-width="3"/><text x="470" y="351.52" font-family="system-ui,Arial" font-size="32" font-weight="700" text-anchor="middle" fill="#3A2A00"></text>
</svg>
