<svg xmlns="http://www.w3.org/2000/svg" viewBox="0 0 400 400">
  <defs>
    <linearGradient id="cake-bg" x1="0" y1="0" x2="0" y2="1">
      <stop offset="0" stop-color="#fef3c7"/>
      <stop offset="1" stop-color="#fbcfe8"/>
    </linearGradient>
  </defs>
  <rect width="400" height="400" fill="url(#cake-bg)"/>
  <!-- confetti cham mau phu goc -->
  <g>
    <circle cx="40" cy="60" r="7" fill="#f472b6"/>
    <circle cx="360" cy="50" r="7" fill="#38bdf8"/>
    <circle cx="70" cy="120" r="5" fill="#a78bfa"/>
    <circle cx="340" cy="130" r="5" fill="#fbbf24"/>
    <rect x="30" y="180" width="12" height="12" rx="2" fill="#34d399" transform="rotate(20 36 186)"/>
    <rect x="358" y="200" width="12" height="12" rx="2" fill="#f87171" transform="rotate(-15 364 206)"/>
    <circle cx="55" cy="330" r="6" fill="#fbbf24"/>
    <circle cx="350" cy="340" r="6" fill="#a78bfa"/>
    <rect x="20" y="90" width="10" height="10" rx="2" fill="#38bdf8" transform="rotate(30 25 95)"/>
    <rect x="372" y="90" width="10" height="10" rx="2" fill="#f472b6" transform="rotate(-25 377 95)"/>
  </g>
  <!-- dia banh -->
  <ellipse cx="200" cy="368" rx="150" ry="22" fill="#e5e7eb"/>
  <ellipse cx="200" cy="360" rx="150" ry="22" fill="#f9fafb"/>
  <!-- tang duoi: cot banh nau -->
  <rect x="90" y="270" width="220" height="80" rx="10" fill="#b45309"/>
  <rect x="90" y="270" width="220" height="26" rx="10" fill="#fde68a"/>
  <!-- kem uon luon vien tang duoi -->
  <g fill="#fbcfe8">
    <circle cx="108" cy="270" r="18"/>
    <circle cx="144" cy="270" r="18"/>
    <circle cx="180" cy="270" r="18"/>
    <circle cx="216" cy="270" r="18"/>
    <circle cx="252" cy="270" r="18"/>
    <circle cx="288" cy="270" r="18"/>
  </g>
  <!-- tang giua: kem hong -->
  <rect x="118" y="196" width="164" height="76" rx="10" fill="#f9a8d4"/>
  <rect x="118" y="196" width="164" height="22" rx="10" fill="#fce7f3"/>
  <!-- rac com/keo mau tang giua -->
  <g>
    <rect x="140" y="232" width="12" height="5" rx="2.5" fill="#38bdf8" transform="rotate(25 146 234)"/>
    <rect x="175" y="245" width="12" height="5" rx="2.5" fill="#fbbf24" transform="rotate(-20 181 247)"/>
    <rect x="210" y="230" width="12" height="5" rx="2.5" fill="#34d399" transform="rotate(15 216 232)"/>
    <rect x="245" y="248" width="12" height="5" rx="2.5" fill="#a78bfa" transform="rotate(-30 251 250)"/>
    <rect x="195" y="255" width="12" height="5" rx="2.5" fill="#f87171" transform="rotate(40 201 257)"/>
  </g>
  <!-- kem uon luon vien tang giua -->
  <g fill="#fef3c7">
    <circle cx="134" cy="196" r="15"/>
    <circle cx="166" cy="196" r="15"/>
    <circle cx="200" cy="196" r="15"/>
    <circle cx="234" cy="196" r="15"/>
    <circle cx="266" cy="196" r="15"/>
  </g>
  <!-- tang tren: kem trang/cot vang -->
  <rect x="150" y="132" width="100" height="66" rx="10" fill="#fef9c3"/>
  <rect x="150" y="132" width="100" height="20" rx="10" fill="#ffffff"/>
  <!-- rac com tang tren -->
  <circle cx="172" cy="172" r="4" fill="#f472b6"/>
  <circle cx="200" cy="180" r="4" fill="#38bdf8"/>
  <circle cx="228" cy="170" r="4" fill="#34d399"/>
  <circle cx="186" cy="188" r="4" fill="#a78bfa"/>
  <circle cx="214" cy="186" r="4" fill="#fbbf24"/>
  <!-- kem vien tang tren -->
  <g fill="#f9a8d4">
    <circle cx="162" cy="132" r="13"/>
    <circle cx="190" cy="132" r="13"/>
    <circle cx="218" cy="132" r="13"/>
    <circle cx="246" cy="132" r="13"/>
  </g>
  <!-- qua anh dao do tren cung -->
  <circle cx="200" cy="120" r="14" fill="#dc2626"/>
  <circle cx="195" cy="115" r="4" fill="#fca5a5" opacity="0.9"/>
  <path d="M200 106 q10 -18 24 -20" stroke="#166534" stroke-width="4" fill="none" stroke-linecap="round"/>
  <!-- 2 cay nen -->
  <rect x="164" y="70" width="12" height="52" rx="3" fill="#38bdf8"/>
  <rect x="169" y="70" width="3" height="52" fill="#7dd3fc" opacity="0.7"/>
  <rect x="224" y="70" width="12" height="52" rx="3" fill="#f472b6"/>
  <rect x="229" y="70" width="3" height="52" fill="#fbcfe8" opacity="0.7"/>
  <!-- bac nen -->
  <line x1="170" y1="70" x2="170" y2="60" stroke="#374151" stroke-width="2.5"/>
  <line x1="230" y1="70" x2="230" y2="60" stroke="#374151" stroke-width="2.5"/>
  <!-- lua nen -->
  <path d="M170 58 q-9 -8 0 -22 q9 14 0 22 z" fill="#f97316"/>
  <path d="M170 56 q-5 -5 0 -14 q5 9 0 14 z" fill="#fde047"/>
  <path d="M230 58 q-9 -8 0 -22 q9 14 0 22 z" fill="#f97316"/>
  <path d="M230 56 q-5 -5 0 -14 q5 9 0 14 z" fill="#fde047"/>
</svg>
