<svg xmlns="http://www.w3.org/2000/svg" viewBox="0 0 400 400">
  <defs>
    <linearGradient id="fish-water" x1="0" y1="0" x2="0" y2="1">
      <stop offset="0" stop-color="#38bdf8"/>
      <stop offset="1" stop-color="#0369a1"/>
    </linearGradient>
  </defs>
  <rect width="400" height="400" fill="url(#fish-water)"/>
  <!-- bong bóng -->
  <g fill="#e0f2fe" opacity="0.85">
    <circle cx="60" cy="70" r="16"/>
    <circle cx="92" cy="120" r="10"/>
    <circle cx="340" cy="90" r="14"/>
    <circle cx="360" cy="140" r="9"/>
    <circle cx="46" cy="150" r="8"/>
  </g>
  <!-- rong biển đáy -->
  <g fill="#22c55e">
    <path d="M40 400 q-14 -50 8 -84 q-18 -40 6 -78 q22 26 6 62 q20 40 -2 100 Z"/>
    <path d="M356 400 q16 -46 -6 -80 q16 -38 -4 -74 q-22 24 -6 60 q-18 42 4 94 Z"/>
    <path d="M108 400 q-8 -34 4 -58 q-12 -28 4 -50 q14 20 4 44 q12 28 0 64 Z" fill="#16a34a"/>
  </g>
  <!-- đáy cát -->
  <path d="M0 384 q100 -22 200 0 t200 0 V400 H0 Z" fill="#fcd34d"/>
  <!-- CÁ VÀNG -->
  <!-- đuôi voan -->
  <path d="M300 200 C 356 140, 392 150, 384 200 C 392 250, 356 260, 300 200 Z" fill="#fb923c"/>
  <path d="M300 200 C 350 168, 380 176, 372 200 C 380 224, 350 232, 300 200 Z" fill="#fdba74"/>
  <!-- vây lưng -->
  <path d="M170 128 C 210 84, 268 92, 274 150 C 240 138, 200 140, 172 158 Z" fill="#f97316"/>
  <!-- vây bụng -->
  <path d="M172 250 C 200 288, 250 292, 268 258 C 236 262, 200 262, 176 244 Z" fill="#f97316"/>
  <!-- thân bầu -->
  <ellipse cx="180" cy="200" rx="130" ry="98" fill="#fb923c"/>
  <ellipse cx="180" cy="212" rx="120" ry="82" fill="#fdba74"/>
  <!-- vảy gợi ý bằng đường cong -->
  <g fill="none" stroke="#f97316" stroke-width="4" stroke-linecap="round" opacity="0.8">
    <path d="M150 150 q22 20 0 40"/>
    <path d="M186 150 q22 20 0 40"/>
    <path d="M222 156 q22 18 0 38"/>
    <path d="M150 200 q22 20 0 40"/>
    <path d="M186 200 q22 20 0 40"/>
    <path d="M222 204 q22 18 0 38"/>
    <path d="M168 250 q22 16 0 32"/>
    <path d="M204 250 q22 16 0 32"/>
  </g>
  <!-- vây ngực -->
  <path d="M150 214 C 130 250, 150 276, 186 262 C 168 246, 162 230, 168 214 Z" fill="#f97316"/>
  <!-- mắt to -->
  <circle cx="112" cy="176" r="30" fill="#ffffff"/>
  <circle cx="106" cy="180" r="16" fill="#1f2937"/>
  <circle cx="100" cy="174" r="6" fill="#ffffff"/>
  <!-- má hồng -->
  <circle cx="96" cy="216" r="12" fill="#fb7185" opacity="0.65"/>
  <!-- miệng chúm -->
  <ellipse cx="62" cy="204" rx="14" ry="11" fill="#ef4444"/>
  <ellipse cx="62" cy="204" rx="7" ry="5" fill="#b91c1c"/>
</svg>
