<svg xmlns="http://www.w3.org/2000/svg" viewBox="0 0 400 400">
  <defs>
    <linearGradient id="strawberry-bg" x1="0" y1="0" x2="0" y2="1">
      <stop offset="0" stop-color="#fff1f2"/>
      <stop offset="1" stop-color="#ffe4e6"/>
    </linearGradient>
  </defs>
  <rect width="400" height="400" fill="url(#strawberry-bg)"/>
  <!-- chấm trang trí góc -->
  <circle cx="55" cy="60" r="9" fill="#fda4af"/>
  <circle cx="350" cy="70" r="7" fill="#fecdd3"/>
  <circle cx="60" cy="350" r="7" fill="#fda4af"/>
  <circle cx="345" cy="345" r="9" fill="#fecdd3"/>
  <circle cx="35" cy="200" r="5" fill="#fb7185"/>
  <circle cx="368" cy="220" r="5" fill="#fb7185"/>

  <!-- quả dâu trái tim ngược -->
  <path d="M200 372
           C 120 300, 58 250, 62 168
           C 66 108, 130 78, 200 118
           C 270 78, 334 108, 338 168
           C 342 250, 280 300, 200 372 Z" fill="#ef4444"/>
  <!-- lớp bóng nhẹ bên trong -->
  <path d="M200 350
           C 132 288, 82 246, 86 176
           C 90 128, 140 104, 200 138
           C 260 104, 310 128, 314 176
           C 318 246, 268 288, 200 350 Z" fill="#f5544f" opacity="0.55"/>

  <!-- hạt vàng rải đều -->
  <g fill="#fde047">
    <ellipse cx="200" cy="150" rx="6" ry="9"/>
    <ellipse cx="150" cy="150" rx="6" ry="9" transform="rotate(-18 150 150)"/>
    <ellipse cx="250" cy="150" rx="6" ry="9" transform="rotate(18 250 150)"/>
    <ellipse cx="112" cy="180" rx="6" ry="9" transform="rotate(-28 112 180)"/>
    <ellipse cx="175" cy="188" rx="6" ry="9" transform="rotate(-8 175 188)"/>
    <ellipse cx="225" cy="188" rx="6" ry="9" transform="rotate(8 225 188)"/>
    <ellipse cx="288" cy="180" rx="6" ry="9" transform="rotate(28 288 180)"/>
    <ellipse cx="138" cy="222" rx="6" ry="9" transform="rotate(-16 138 222)"/>
    <ellipse cx="200" cy="228" rx="6" ry="9"/>
    <ellipse cx="262" cy="222" rx="6" ry="9" transform="rotate(16 262 222)"/>
    <ellipse cx="100" cy="228" rx="6" ry="9" transform="rotate(-34 100 228)"/>
    <ellipse cx="300" cy="228" rx="6" ry="9" transform="rotate(34 300 228)"/>
    <ellipse cx="168" cy="262" rx="6" ry="9" transform="rotate(-10 168 262)"/>
    <ellipse cx="232" cy="262" rx="6" ry="9" transform="rotate(10 232 262)"/>
    <ellipse cx="130" cy="278" rx="6" ry="9" transform="rotate(-22 130 278)"/>
    <ellipse cx="270" cy="278" rx="6" ry="9" transform="rotate(22 270 278)"/>
    <ellipse cx="200" cy="298" rx="6" ry="9"/>
    <ellipse cx="165" cy="320" rx="6" ry="9" transform="rotate(-14 165 320)"/>
    <ellipse cx="235" cy="320" rx="6" ry="9" transform="rotate(14 235 320)"/>
  </g>

  <!-- điểm sáng bóng -->
  <ellipse cx="140" cy="170" rx="26" ry="34" fill="#ffffff" opacity="0.35" transform="rotate(-24 140 170)"/>

  <!-- cuống + lá 5 cánh -->
  <g fill="#22c55e">
    <path d="M200 132 C 176 96, 128 92, 118 116 C 158 128, 176 128, 200 132 Z"/>
    <path d="M200 132 C 224 96, 272 92, 282 116 C 242 128, 224 128, 200 132 Z"/>
    <path d="M200 132 C 168 108, 132 128, 138 152 C 172 142, 186 138, 200 132 Z"/>
    <path d="M200 132 C 232 108, 268 128, 262 152 C 228 142, 214 138, 200 132 Z"/>
    <path d="M200 128 C 186 96, 214 96, 200 128 Z"/>
    <polygon points="200,90 190,128 210,128"/>
  </g>
  <rect x="193" y="96" width="14" height="30" rx="6" fill="#16a34a"/>
  <ellipse cx="200" cy="132" rx="30" ry="12" fill="#15803d"/>

  <!-- mặt cười dễ thương -->
  <ellipse cx="170" cy="240" rx="12" ry="15" fill="#ffffff"/>
  <ellipse cx="230" cy="240" rx="12" ry="15" fill="#ffffff"/>
  <circle cx="171" cy="244" r="7" fill="#3b2f2f"/>
  <circle cx="229" cy="244" r="7" fill="#3b2f2f"/>
  <circle cx="173" cy="240" r="2.5" fill="#ffffff"/>
  <circle cx="231" cy="240" r="2.5" fill="#ffffff"/>
  <circle cx="148" cy="262" r="10" fill="#fb7185"/>
  <circle cx="252" cy="262" r="10" fill="#fb7185"/>
  <path d="M180 266 q20 18 40 0" stroke="#3b2f2f" stroke-width="5" fill="none" stroke-linecap="round"/>
</svg>
